HIERARCHY
ROOT pelvis
{
  OFFSET 0 100 0
  CHANNELS 6 Xposition Yposition Zposition Zrotation Xrotation Yrotation
  JOINT pelvis_right_femur
  {
    OFFSET -10.78128 -3.44521 -0.5502486
    CHANNELS 3 Zrotation Xrotation Yrotation
    JOINT right_femur_tibia
    {
      OFFSET -0.8047443 -44.0398 -0.1307829
      CHANNELS 3 Zrotation Xrotation Yrotation
      JOINT right_tibia_foot
      {
        OFFSET 3.006224 -47.83518 -5
        CHANNELS 3 Zrotation Xrotation Yrotation
        End Site
        {
          OFFSET 0 -5 15
        }
      }
    }
  }
  JOINT pelvis_left_femur
  {
    OFFSET 10.78128 -3.44521 -0.5502486
    CHANNELS 3 Zrotation Xrotation Yrotation
    JOINT left_femur_tibia
    {
      OFFSET 0.8047443 -44.0398 -0.1307829
      CHANNELS 3 Zrotation Xrotation Yrotation
      JOINT left_tibia_foot
      {
        OFFSET -4.370144 -48.10324 -4.275266
        CHANNELS 3 Zrotation Xrotation Yrotation
        End Site
        {
          OFFSET 0 -5 15
        }
      }
    }
  }
  JOINT pelvis_spine1
  {
    OFFSET 0 6.468898 -3.129235
    CHANNELS 3 Zrotation Xrotation Yrotation
    JOINT spine1
    {
      OFFSET 0 23.15396 4.99043
      CHANNELS 3 Zrotation Xrotation Yrotation
      JOINT spine2
      {
        OFFSET 0 20.79997 -5.064912
        CHANNELS 3 Zrotation Xrotation Yrotation
        JOINT neck
        {
          OFFSET 0 14.38658 9.616178
          CHANNELS 3 Zrotation Xrotation Yrotation
          End Site
          {
            OFFSET 0 20 0
          }
        }
      }
      JOINT right_manubrium
      {
        OFFSET -5.722621 16.35077 3.967754
        CHANNELS 3 Zrotation Xrotation Yrotation
        JOINT right_clavicle
        {
          OFFSET -13.16364 1.694482 -4.693211
          CHANNELS 3 Zrotation Xrotation Yrotation
          JOINT right_humerus
          {
            OFFSET -28.5034 -0.3100689 -2.792744
            CHANNELS 3 Zrotation Xrotation Yrotation
            JOINT right_radius
            {
              OFFSET -25.15693 0.02248979 -1.271978
              CHANNELS 3 Zrotation Xrotation Yrotation
              End Site
              {
                OFFSET -15 0 0
              }
            }
          }
        }
      }
      JOINT left_manubrium
      {
        OFFSET 5.722621 16.35077 3.967754
        CHANNELS 3 Zrotation Xrotation Yrotation
        JOINT left_clavicle
        {
          OFFSET 13.16364 1.694482 -4.693211
          CHANNELS 3 Zrotation Xrotation Yrotation
          JOINT left_humerus
          {
            OFFSET 29.39168 -1.063119 -2.237045
            CHANNELS 3 Zrotation Xrotation Yrotation
            JOINT left_radius
            {
              OFFSET 24.59957 -0.9528479 0.9047498
              CHANNELS 3 Zrotation Xrotation Yrotation
              End Site
              {
                OFFSET 15 -0 -0
              }
            }
          }
        }
      }
    }
  }
}
MOTION
Frames: 7
Frame Time: 0.0416666666667
-888.1463 98.47128 2639.426 -6.6543 -4.50639 -54.47225 6.748917 10.14119 -0.5380982 -0 8.287106 -0 -11.99123 -10.3696 -1.642854 2.834634 -19.60811 -2.788042 -0 32.14112 -0 1.450651 -3.064237 16.31823 2.001685 -4.386144 6.327812 2.491559 16.8192 -10.01204 0.4916629 19.34957 3.224392 -1.56337 -30.09873 6.031129 -9.531169 -30.12939 10.62478 103.0483 8.065584 -25.07163 -0 0 12.40417 -19.34325 6.70515 11.83504 1.412705 -28.93152 -8.982946 -88.66564 16.14634 27.43161 0 0 -31.04428 5.894883 7.402361 11.57745
-891.9086 97.48933 2642.745 -6.436254 -3.783 -55.1352 6.555907 12.63136 -0.6462737 -0 8.694337 -0 -11.7059 -13.55258 -1.465015 3.866522 -21.36634 -2.617539 -0 21.93079 -0 1.65091 -2.544675 16.44409 2.001878 -4.385924 6.32846 2.491337 16.81938 -10.01161 0.4917987 19.34918 3.223871 -1.563924 -30.09927 6.031071 -9.531683 -30.13113 10.62447 103.0478 8.065645 -25.06943 -0 0 12.40755 -19.3431 6.705561 11.83579 1.412153 -28.92999 -8.982347 -88.66776 16.14672 27.43558 0 0 -31.04061 5.893349 7.401351 11.57952
-895.8151 96.32316 2646.339 -6.156785 -3.187678 -55.78709 5.895315 14.72884 -0.4972892 -0 10.17202 -0 -11.07716 -15.84065 -1.224163 4.112752 -22.05004 -3.020245 -0 14.28391 -0 1.613196 -2.1238 16.69791 2.00197 -4.385644 6.32889 2.491129 16.81927 -10.01123 0.491894 19.34901 3.223608 -1.564267 -30.09978 6.031134 -9.532188 -30.13223 10.62411 103.0475 8.065847 -25.06791 -0 0 12.40964 -19.34285 6.705394 11.83621 1.411805 -28.92885 -8.981822 -88.66921 16.14727 27.43818 0 0 -31.03807 5.892201 7.400412 11.58116
-900.0035 95.20579 2650.304 -5.885307 -2.910909 -56.43674 4.75855 16.66503 -0.0926909 -0 12.91833 -0 -10.23759 -16.37088 -0.851753 3.488934 -21.91605 -3.992089 -0 9.905065 -0 1.290122 -2.038919 17.28233 2.001964 -4.385324 6.329093 2.490951 16.8189 -10.01091 0.4919441 19.34905 3.2236 -1.564396 -30.10025 6.031304 -9.532661 -30.13269 10.62373 103.0476 8.066162 -25.06712 -0 0 12.4104 -19.34254 6.704691 11.83628 1.411664 -28.92814 -8.981395 -88.66996 16.14794 27.43936 0 0 -31.03675 5.891478 7.399585 11.58233
-904.5616 94.3661 2654.673 -5.648436 -3.046683 -57.04814 3.240516 18.46424 0.4487176 -0 17.15577 -0 -9.553223 -14.47542 -0.3470106 2.064121 -21.12702 -5.458623 -0 8.795555 -0 0.7992831 -2.410888 18.18227 2.001868 -4.384988 6.329074 2.490811 16.81831 -10.01068 0.4919483 19.34928 3.223829 -1.56432 -30.10066 6.031565 -9.533081 -30.13252 10.62336 103.048 8.066561 -25.06705 -0 0 12.40989 -19.34217 6.703525 11.83602 1.411723 -28.92787 -8.981086 -88.67001 16.14868 27.43915 0 0 -31.03665 5.891191 7.398902 11.58299
-909.4868 94.00406 2659.382 -5.449343 -3.590504 -57.53044 1.520676 19.86431 0.9782857 -0 23.10464 -0 -9.450587 -9.904924 0.2429649 0.04764505 -19.7102 -7.273733 -0 10.3116 -0 0.3783835 -3.23637 19.24732 2.001692 -4.384652 6.328847 2.490715 16.81755 -10.01055 0.4919093 19.34968 3.224272 -1.564053 -30.10099 6.031897 -9.533429 -30.13176 10.62301 103.0487 8.067019 -25.06767 -0 0 12.40821 -19.34178 6.701982 11.83547 1.411968 -28.92805 -8.980903 -88.66939 16.14945 27.43765 0 0 -31.0377 5.89133 7.398394 11.58313
-914.6648 94.25661 2664.263 -5.292464 -4.413205 -57.75354 -0.1110804 20.25019 1.34305 -0 30.82206 -0 -10.20186 -3.043907 0.9159532 -2.200866 -17.57869 -9.178846 -0 13.29469 -0 0.3014801 -4.400492 20.26362 2.001445 -4.384333 6.328427 2.490663 16.81666 -10.0105 0.4918311 19.35022 3.224898 -1.563615 -30.10122 6.032283 -9.533687 -30.13047 10.6227 103.0496 8.067516 -25.06892 -0 0 12.40546 -19.34138 6.700152 11.83466 1.412382 -28.92863 -8.98085 -88.66816 16.15021 27.43496 0 0 -31.0398 5.891876 7.398083 11.58276
